<?xml version="1.0" encoding="UTF-8"?>
<svg width="32" height="32" viewBox="0 0 32 32" fill="none" xmlns="http://www.w3.org/2000/svg">
    <!-- Beacon Icon -->
    <g transform="translate(2, 0) scale(0.85)">
        <!-- Lighthouse Base -->
        <path d="M8 28 L24 28 L22 25 L10 25 Z" fill="#006F6A"/>
        <path d="M10 25 L22 25 L20 16 L12 16 Z" fill="#006F6A"/>
        <!-- Platform -->
        <path d="M6 28 L26 28 L28 31 L4 31 Z" fill="#006F6A"/>
        <!-- Lighthouse Top -->
        <path d="M12 16 L20 16 L16 4 Z" fill="#006F6A"/>
        <!-- Window -->
        <circle cx="16" cy="12" r="1.5" fill="white"/>
        <!-- Light Beams -->
        <path d="M16 9 L28 2 L26 4 L16 11 Z" fill="#006F6A" opacity="0.7"/>
        <path d="M16 9 L4 2 L6 4 L16 11 Z" fill="#006F6A" opacity="0.7"/>
        <!-- Railing Detail -->
        <path d="M14 18 L18 18 L17.5 20 L14.5 20 Z" fill="#006F6A" opacity="0.9"/>
    </g>
</svg> 