<svg xmlns="http://www.w3.org/2000/svg" viewBox="0 0 400 400">
  <!-- Background circle -->
  <circle cx="200" cy="200" r="180" fill="#8BAB8D" />
  
  <!-- Light beams -->
  <path d="M200 20 L50 200 L350 200 Z" fill="#F5F5DC" opacity="0.4" />
  <path d="M200 20 L100 300 L300 300 Z" fill="#F5F5DC" opacity="0.3" />
  
  <!-- Lighthouse base -->
  <rect x="170" y="260" width="60" height="40" fill="#2D3E40" />
  
  <!-- Lighthouse tower -->
  <rect x="180" y="140" width="40" height="120" fill="#2D3E40" />
  
  <!-- Lighthouse stripes -->
  <rect x="180" y="160" width="40" height="20" fill="#F5F5DC" />
  <rect x="180" y="200" width="40" height="20" fill="#F5F5DC" />
  <rect x="180" y="240" width="40" height="20" fill="#F5F5DC" />
  
  <!-- Lighthouse top -->
  <rect x="185" y="120" width="30" height="20" fill="#2D3E40" />
  <circle cx="200" cy="110" r="10" fill="#F5F5DC" />
  
  <!-- Water/waves -->
  <path d="M100 320 L300 320" stroke="#5E8C61" stroke-width="5" />
  <path d="M120 330 L280 330" stroke="#5E8C61" stroke-width="4" />
  <path d="M140 340 L260 340" stroke="#5E8C61" stroke-width="3" />
  
  <!-- Envelope element for email context -->
  <circle cx="290" cy="110" r="25" fill="#F5F5DC" opacity="0.8" />
  <path d="M275 100 L305 100 L290 110 Z" fill="#5E8C61" />
  <rect x="275" y="100" width="30" height="20" fill="transparent" stroke="#5E8C61" stroke-width="2" />
</svg>
